<svg id="svg" version="1.1" width="400" height="250" xmlns="http://www.w3.org/2000/svg" xmlns:xlink="http://www.w3.org/1999/xlink" style="display: block;"><g id="svgg"><path id="path0" d="" stroke="none" fill="#000000" fill-rule="evenodd"></path><path id="path1" d="" stroke="none" fill="#555500" fill-rule="evenodd"></path><path id="path2" d="M263.800 73.300 C 263.580 73.520,263.500 75.597,263.500 81.086 L 263.500 88.573 262.129 87.276 C 253.634 79.242,239.884 86.699,241.459 98.486 C 242.834 108.779,254.749 113.195,262.188 106.167 L 263.500 104.927 263.500 106.914 C 263.500 108.125,263.617 109.017,263.800 109.200 C 264.289 109.689,265.695 109.571,265.991 109.016 C 266.466 108.129,266.337 73.873,265.857 73.393 C 265.392 72.928,264.225 72.875,263.800 73.300 M128.688 93.469 L 106.500 104.083 106.500 106.626 L 106.500 109.169 121.063 116.131 C 129.072 119.961,139.087 124.753,143.319 126.781 L 151.013 130.468 150.944 126.731 L 150.875 122.994 134.125 115.045 C 124.912 110.673,117.170 106.982,116.920 106.841 C 116.550 106.633,119.618 105.094,133.545 98.498 C 142.939 94.050,150.712 90.337,150.819 90.248 C 150.926 90.159,150.983 88.459,150.944 86.471 L 150.875 82.856 128.688 93.469 M189.173 84.363 C 176.318 88.031,176.760 106.408,189.772 109.256 C 195.159 110.435,203.280 107.321,201.237 104.860 C 200.762 104.287,200.014 104.430,197.875 105.504 C 192.259 108.321,185.803 106.250,183.324 100.834 C 179.116 91.642,190.242 82.630,198.702 88.379 C 200.283 89.453,201.626 89.062,201.456 87.578 C 201.180 85.176,193.431 83.147,189.173 84.363 M217.940 84.485 C 209.454 87.198,206.595 98.843,212.760 105.588 C 218.532 111.904,228.538 110.403,232.230 102.668 C 237.057 92.552,228.152 81.221,217.940 84.485 M283.244 84.556 C 269.867 89.225,273.021 109.500,287.125 109.500 C 292.423 109.500,298.937 104.934,297.491 102.234 C 297.033 101.378,295.644 101.584,295.015 102.601 C 290.566 109.799,278.582 106.972,277.577 98.487 L 277.430 97.250 288.165 97.250 C 299.894 97.250,299.500 97.302,299.500 95.753 C 299.500 88.011,290.704 81.952,283.244 84.556 M225.118 87.460 C 228.007 88.812,230.279 91.935,230.692 95.125 C 231.900 104.450,222.062 110.410,215.496 104.331 C 207.499 96.928,215.473 82.947,225.118 87.460 M257.835 87.712 C 263.778 90.637,265.196 98.838,260.606 103.744 C 255.178 109.547,245.359 106.302,244.310 98.359 C 243.243 90.281,250.865 84.280,257.835 87.712 M291.000 87.530 C 293.063 88.505,294.590 89.999,295.613 92.044 C 297.101 95.019,297.954 94.750,287.020 94.750 L 277.540 94.750 277.798 93.813 C 279.334 88.226,285.881 85.111,291.000 87.530 M106.500 115.483 L 106.500 119.185 121.938 126.503 C 130.428 130.528,138.193 134.229,139.192 134.728 L 141.010 135.636 139.192 136.530 C 138.193 137.022,130.434 140.716,121.950 144.739 L 106.524 152.053 106.450 155.777 C 106.409 157.825,106.387 159.501,106.401 159.500 C 106.416 159.500,116.485 154.688,128.776 148.807 L 151.125 138.114 151.125 135.626 L 151.125 133.137 133.500 124.705 C 123.806 120.067,113.766 115.261,111.188 114.026 L 106.500 111.780 106.500 115.483 M210.009 121.234 C 209.856 121.520,209.750 123.715,209.750 126.609 L 209.750 131.500 207.745 131.500 C 205.459 131.500,204.833 132.012,205.455 133.375 C 205.724 133.966,205.848 134.000,207.745 134.000 L 209.750 134.000 209.750 143.836 C 209.750 153.647,209.751 153.674,210.331 154.773 C 211.470 156.932,215.016 157.873,215.611 156.174 C 215.943 155.224,215.579 154.715,214.227 154.243 C 212.485 153.636,212.508 153.780,212.504 143.313 L 212.500 134.000 214.494 134.000 C 216.346 134.000,216.518 133.955,216.898 133.375 C 217.710 132.136,216.894 131.500,214.494 131.500 L 212.500 131.500 212.500 126.425 C 212.500 122.811,212.414 121.264,212.200 121.050 C 211.711 120.561,210.305 120.679,210.009 121.234 M308.759 121.234 C 308.606 121.520,308.500 123.715,308.500 126.609 L 308.500 131.500 306.495 131.500 C 304.598 131.500,304.474 131.534,304.205 132.125 C 303.583 133.488,304.209 134.000,306.495 134.000 L 308.500 134.000 308.500 143.836 C 308.500 153.647,308.501 153.674,309.081 154.773 C 310.220 156.932,313.766 157.873,314.361 156.174 C 314.693 155.224,314.329 154.715,312.977 154.243 C 311.235 153.636,311.258 153.780,311.254 143.313 L 311.250 134.000 313.244 134.000 C 315.644 134.000,316.460 133.364,315.648 132.125 C 315.268 131.545,315.096 131.500,313.244 131.500 L 311.250 131.500 311.250 126.425 C 311.250 122.811,311.164 121.264,310.950 121.050 C 310.461 120.561,309.055 120.679,308.759 121.234 M185.732 131.842 C 180.401 133.279,178.420 138.963,182.117 142.210 C 183.532 143.452,184.822 143.986,188.293 144.769 C 195.648 146.427,198.218 149.711,194.424 152.605 C 191.070 155.162,187.262 154.916,182.193 151.812 C 179.695 150.283,178.219 152.257,180.563 153.994 C 187.938 159.460,198.750 156.925,198.750 149.729 C 198.750 145.845,196.102 143.731,189.519 142.361 C 184.021 141.216,182.017 139.377,183.384 136.733 C 185.118 133.380,190.596 133.147,195.125 136.235 C 196.026 136.850,196.581 136.884,197.107 136.357 C 199.637 133.827,191.035 130.412,185.732 131.842 M225.300 131.800 C 224.868 132.232,224.868 156.268,225.300 156.700 C 225.697 157.097,226.870 157.083,227.207 156.677 C 227.376 156.473,227.502 154.102,227.550 150.211 L 227.625 144.068 228.918 141.472 C 230.983 137.322,234.319 134.250,236.759 134.250 C 238.923 134.250,239.888 133.425,239.281 132.093 C 238.191 129.701,231.069 132.892,228.051 137.125 L 227.516 137.875 227.508 134.988 C 227.499 131.881,227.362 131.500,226.250 131.500 C 225.892 131.500,225.465 131.635,225.300 131.800 M251.994 132.056 C 238.617 136.725,241.771 157.000,255.875 157.000 C 261.173 157.000,267.687 152.434,266.241 149.734 C 265.783 148.878,264.394 149.084,263.765 150.101 C 259.316 157.299,247.332 154.472,246.327 145.987 L 246.180 144.750 256.915 144.750 C 268.644 144.750,268.250 144.802,268.250 143.253 C 268.250 135.511,259.454 129.452,251.994 132.056 M283.744 132.056 C 270.367 136.725,273.521 157.000,287.625 157.000 C 292.923 157.000,299.437 152.434,297.991 149.734 C 297.533 148.878,296.144 149.084,295.515 150.101 C 291.066 157.299,279.082 154.472,278.077 145.987 L 277.930 144.750 288.665 144.750 C 300.394 144.750,300.000 144.802,300.000 143.253 C 300.000 135.511,291.204 129.452,283.744 132.056 M259.750 135.030 C 261.813 136.005,263.340 137.499,264.363 139.544 C 265.851 142.519,266.704 142.250,255.770 142.250 L 246.290 142.250 246.548 141.313 C 248.084 135.726,254.631 132.611,259.750 135.030 M291.500 135.030 C 293.563 136.005,295.090 137.499,296.113 139.544 C 297.601 142.519,298.454 142.250,287.520 142.250 L 278.040 142.250 278.298 141.313 C 279.834 135.726,286.381 132.611,291.500 135.030 " stroke="none" fill="#fb9700" fill-rule="evenodd"></path><path id="path3" d="" stroke="none" fill="#00ff00" fill-rule="evenodd"></path><path id="path4" d="M105.903 83.063 C 104.775 84.834,84.160 120.665,84.069 121.013 C 84.005 121.258,88.623 129.325,95.167 140.403 L 106.375 159.375 106.444 155.717 L 106.513 152.059 121.944 144.744 C 130.431 140.721,138.193 137.021,139.192 136.522 L 141.010 135.614 139.192 134.720 C 138.193 134.228,130.428 130.531,121.938 126.505 L 106.500 119.185 106.500 115.483 L 106.500 111.780 111.188 114.026 C 113.766 115.261,123.806 120.067,133.500 124.705 L 151.125 133.137 151.125 135.626 L 151.125 138.115 130.375 148.038 C 118.963 153.496,108.950 158.302,108.125 158.717 L 106.625 159.471 129.120 159.423 L 151.615 159.375 162.684 140.250 C 168.772 129.731,173.724 120.937,173.689 120.707 C 173.654 120.477,168.619 111.791,162.500 101.405 L 151.375 82.522 128.818 82.511 L 106.262 82.500 105.903 83.063 M150.819 90.248 C 150.712 90.337,142.939 94.050,133.545 98.498 C 119.618 105.094,116.550 106.633,116.920 106.841 C 117.170 106.982,124.912 110.673,134.125 115.045 L 150.875 122.994 150.944 126.731 L 151.013 130.468 143.319 126.781 C 139.087 124.753,129.072 119.961,121.063 116.131 L 106.500 109.169 106.500 106.626 L 106.500 104.083 128.688 93.469 L 150.875 82.856 150.944 86.471 C 150.983 88.459,150.926 90.159,150.819 90.248 " stroke="none" fill="#faffc8" fill-rule="evenodd"></path></g></svg>