<?xml version="1.0" encoding="utf-8"?>
<!-- Generator: Adobe Illustrator 16.0.0, SVG Export Plug-In . SVG Version: 6.00 Build 0)  -->
<!DOCTYPE svg PUBLIC "-//W3C//DTD SVG 1.1//EN" "http://www.w3.org/Graphics/SVG/1.1/DTD/svg11.dtd">
<svg version="1.1"
	 id="svg2" xmlns:svg="http://www.w3.org/2000/svg" xmlns:rdf="http://www.w3.org/1999/02/22-rdf-syntax-ns#" xmlns:cc="http://creativecommons.org/ns#" xmlns:inkscape="http://www.inkscape.org/namespaces/inkscape" xmlns:sodipodi="http://sodipodi.sourceforge.net/DTD/sodipodi-0.dtd" xmlns:dc="http://purl.org/dc/elements/1.1/" inkscape:version="0.91 r13725" sodipodi:docname="logo.svg"
	 xmlns="http://www.w3.org/2000/svg" xmlns:xlink="http://www.w3.org/1999/xlink" x="0px" y="0px" width="1075px" height="138px"
	 viewBox="0 0 1075 138" enable-background="new 0 0 1075 138" xml:space="preserve">
<sodipodi:namedview  bordercolor="#666666" objecttolerance="10" pagecolor="#cb7d7d" borderopacity="1" inkscape:cy="69" inkscape:cx="809.6519" showgrid="false" guidetolerance="10" gridtolerance="10" inkscape:zoom="0.29395349" id="namedview4" inkscape:pageopacity="0" inkscape:pageshadow="2" inkscape:window-width="846" inkscape:window-height="480" inkscape:window-x="0" inkscape:window-y="0" inkscape:window-maximized="0" inkscape:current-layer="svg2">
	</sodipodi:namedview>
<g>
	<path d="M92.638,83.33c-7.25,0-13.438-2.564-18.567-7.692s-7.692-11.317-7.692-18.567c0-7.25,2.564-13.438,7.692-18.567
		s11.316-7.692,18.567-7.692h54.063v18.536H92.638c-2.143,0-3.965,0.752-5.468,2.255c-1.504,1.504-2.255,3.327-2.255,5.468
		c0,2.142,0.751,3.965,2.255,5.468c1.503,1.504,3.326,2.255,5.468,2.255h27.804c7.25,0,13.438,2.564,18.567,7.692
		s7.692,11.317,7.692,18.567s-2.564,13.438-7.692,18.566s-11.317,7.692-18.567,7.692H60.2V98.776h60.242
		c2.141,0,3.964-0.751,5.468-2.255c1.503-1.503,2.255-3.326,2.255-5.468s-0.752-3.965-2.255-5.469
		c-1.504-1.503-3.327-2.255-5.468-2.255H92.638z"/>
	<path d="M159.058,30.812l49.491-0.062l-0.062,86.501h-18.536V49.286l-30.893,0.062V30.812z M214.728,30.75h24.653v18.536h-24.653
		V30.75z"/>
	<path d="M290.602,83.33h-38.864V64.794h60.242c2.141,0,3.964-0.751,5.468-2.255c1.503-1.503,2.255-3.326,2.255-5.468
		c0-2.141-0.752-3.964-2.255-5.468c-1.504-1.503-3.327-2.255-5.468-2.255h-54.063V30.812h54.063c7.25,0,13.438,2.564,18.567,7.692
		s7.692,11.317,7.692,18.567c0,7.25-2.555,13.429-7.662,18.536c-5.108,5.108-11.225,7.683-18.351,7.724l29.102,33.982h-21.625
		L290.602,83.33z M276.452,98.776v18.536h-18.536V98.776H276.452z"/>
	<path d="M437.097,30.812v18.536h-86.501V30.812H437.097z M424.739,83.33h-74.144V64.732l74.144,0.062V83.33z M424.739,98.838
		v18.475h-74.144V98.838H424.739z"/>
	<path d="M535.955,30.812v18.536h-86.501V30.812H535.955z M523.598,83.33h-74.144V64.732l74.144,0.062V83.33z M523.598,98.838
		v18.475h-74.144V98.838H523.598z"/>
	<path d="M548.313,30.812l49.49-0.062l-0.061,86.501h-18.537V49.286l-30.893,0.062V30.812z M603.982,30.75h24.652v18.536h-24.652
		V30.75z"/>
	<path d="M671.947,83.269v34.044H653.35V83.33h-12.357V64.794h12.357V30.873h18.535l0.063,33.921h36.948l0.062,18.475H671.947z
		 M715.136,30.812h18.536v86.501h-18.598L715.136,30.812z"/>
	<path d="M771.855,98.776l-7.291,18.536h-20.08l26.691-67.965h-12.789V30.812h41.705l16.991,43.25h-20.081l-7.723-19.647
		L779.146,80.24h40.346l7.291,18.536H771.855z"/>
	<path d="M896.355,91.548l13.099,13.099c-8.444,8.444-18.64,12.666-30.585,12.666s-22.141-4.222-30.584-12.666
		c-8.444-8.443-12.666-18.639-12.666-30.585c0-11.944,4.222-22.139,12.666-30.584c8.443-8.443,18.639-12.666,30.584-12.666
		s22.141,4.223,30.585,12.666l-13.099,13.099c-4.82-4.819-10.648-7.229-17.486-7.229s-12.666,2.41-17.484,7.229
		c-4.82,4.819-7.229,10.648-7.229,17.485c0,6.839,2.409,12.667,7.229,17.486c4.818,4.819,10.646,7.229,17.484,7.229
		S891.535,96.367,896.355,91.548z"/>
	<path d="M940.656,88.458l43.25-57.646h21.625l-64.875,86.501l-18.536-0.062V30.812h18.536V88.458z M977.729,80.24l27.803,37.072
		h-21.625l-16.991-22.676L977.729,80.24z"/>
</g>
</svg>
