<?xml version="1.0" encoding="UTF-8" standalone="no"?>
<svg
   xmlns:dc="http://purl.org/dc/elements/1.1/"
   xmlns:cc="http://creativecommons.org/ns#"
   xmlns:rdf="http://www.w3.org/1999/02/22-rdf-syntax-ns#"
   xmlns:svg="http://www.w3.org/2000/svg"
   xmlns="http://www.w3.org/2000/svg"
   viewBox="0 0 1433.3333 184"
   height="184"
   width="1433.3333"
   xml:space="preserve"
   id="svg2"
   version="1.1"><metadata
     id="metadata8"><rdf:RDF><cc:Work
         rdf:about=""><dc:format>image/svg+xml</dc:format><dc:type
           rdf:resource="http://purl.org/dc/dcmitype/StillImage" /></cc:Work></rdf:RDF></metadata><defs
     id="defs6"><clipPath
       id="clipPath18"
       clipPathUnits="userSpaceOnUse"><path
         id="path16"
         d="M 0,138 H 1075 V 0 H 0 Z" /></clipPath></defs><g
     transform="matrix(1.3333333,0,0,-1.3333333,0,184)"
     id="g10"><g
       id="g12"><g
         clip-path="url(#clipPath18)"
         id="g14"><g
           transform="translate(63.439,54.6699)"
           id="g20"><path
             id="path22"
             style="fill:#ffffff;fill-opacity:1;fill-rule:nonzero;stroke:none"
             d="m 0,0 c -7.25,0 -13.438,2.564 -18.567,7.692 -5.128,5.128 -7.692,11.317 -7.692,18.567 0,7.25 2.564,13.439 7.692,18.567 5.129,5.129 11.317,7.693 18.567,7.693 H 54.063 V 33.982 H 0 c -2.143,0 -3.965,-0.752 -5.468,-2.254 -1.504,-1.505 -2.256,-3.328 -2.256,-5.469 0,-2.142 0.752,-3.965 2.256,-5.468 1.503,-1.504 3.325,-2.255 5.468,-2.255 h 27.804 c 7.249,0 13.438,-2.564 18.567,-7.692 5.128,-5.128 7.692,-11.318 7.692,-18.568 0,-7.25 -2.564,-13.438 -7.692,-18.566 -5.129,-5.128 -11.318,-7.692 -18.567,-7.692 h -60.242 v 18.536 h 60.242 c 2.141,0 3.964,0.751 5.468,2.255 1.503,1.503 2.255,3.326 2.255,5.467 0,2.142 -0.752,3.965 -2.255,5.469 C 31.768,-0.752 29.945,0 27.804,0 Z" /></g><path
           id="path24"
           style="fill:#ffffff;fill-opacity:1;fill-rule:nonzero;stroke:none"
           d="m 185.529,107.25 h 24.653 V 88.714 h -24.653 z m -55.67,-0.062 49.491,0.062 -0.061,-86.501 h -18.537 v 67.965 l -30.893,-0.062 z" /><path
           id="path26"
           style="fill:#ffffff;fill-opacity:1;fill-rule:nonzero;stroke:none"
           d="m 247.253,20.687 h -18.536 v 18.536 h 18.536 z m 14.15,33.983 h -38.864 v 18.536 h 60.242 c 2.141,0 3.964,0.751 5.468,2.255 1.503,1.503 2.255,3.326 2.255,5.468 0,2.141 -0.752,3.964 -2.255,5.468 -1.504,1.503 -3.327,2.255 -5.468,2.255 h -54.063 v 18.536 h 54.063 c 7.249,0 13.438,-2.563 18.567,-7.692 5.128,-5.128 7.692,-11.317 7.692,-18.567 0,-7.25 -2.555,-13.429 -7.662,-18.535 -5.107,-5.109 -11.224,-7.683 -18.35,-7.724 l 29.101,-33.983 h -21.625 z" /><path
           id="path28"
           style="fill:#ffffff;fill-opacity:1;fill-rule:nonzero;stroke:none"
           d="m 395.541,20.687 h -74.144 v 18.475 h 74.144 z m 0,33.983 h -74.144 v 18.598 l 74.144,-0.062 z m 12.357,33.982 h -86.501 v 18.536 h 86.501 z" /><path
           id="path30"
           style="fill:#ffffff;fill-opacity:1;fill-rule:nonzero;stroke:none"
           d="m 494.399,20.687 h -74.144 v 18.475 h 74.144 z m 0,33.983 h -74.144 v 18.598 l 74.144,-0.062 z m 12.357,33.982 h -86.501 v 18.536 h 86.501 z" /><path
           id="path32"
           style="fill:#ffffff;fill-opacity:1;fill-rule:nonzero;stroke:none"
           d="m 574.783,107.25 h 24.652 V 88.714 h -24.652 z m -55.669,-0.062 49.491,0.062 -0.062,-86.501 h -18.535 v 67.965 l -30.894,-0.062 z" /><g
           transform="translate(747.7236,107.1885)"
           id="g34"><path
             id="path36"
             style="fill:#ffffff;fill-opacity:1;fill-rule:nonzero;stroke:none"
             d="M 0,0 H 18.536 V -86.501 H -0.062 Z m -43.188,-52.457 v -34.044 h -18.598 v 33.982 h -12.358 v 18.537 h 12.358 v 33.92 h 18.536 l 0.062,-33.92 H -6.24 l 0.061,-18.475 z" /></g><g
           transform="translate(804.4443,39.2236)"
           id="g38"><path
             id="path40"
             style="fill:#ffffff;fill-opacity:1;fill-rule:nonzero;stroke:none"
             d="M 0,0 -7.291,-18.536 H -27.372 L -0.68,49.429 H -13.47 V 67.965 H 28.236 L 45.228,24.715 H 25.146 L 17.424,44.362 7.29,18.536 H 47.637 L 54.928,0 Z" /></g><g
           transform="translate(928.9434,46.4521)"
           id="g42"><path
             id="path44"
             style="fill:#ffffff;fill-opacity:1;fill-rule:nonzero;stroke:none"
             d="m 0,0 13.099,-13.099 c -8.445,-8.444 -18.64,-12.666 -30.584,-12.666 -11.947,0 -22.142,4.222 -30.585,12.666 -8.445,8.444 -12.666,18.639 -12.666,30.585 0,11.945 4.221,22.139 12.666,30.584 8.443,8.444 18.638,12.666 30.585,12.666 11.944,0 22.139,-4.222 30.584,-12.666 L 0,34.971 c -4.819,4.82 -10.648,7.229 -17.485,7.229 -6.839,0 -12.667,-2.409 -17.487,-7.229 -4.819,-4.819 -7.228,-10.648 -7.228,-17.485 0,-6.839 2.409,-12.667 7.228,-17.486 4.82,-4.819 10.648,-7.229 17.487,-7.229 6.837,0 12.666,2.41 17.485,7.229" /></g><g
           transform="translate(1010.3154,57.7598)"
           id="g46"><path
             id="path48"
             style="fill:#ffffff;fill-opacity:1;fill-rule:nonzero;stroke:none"
             d="M 0,0 27.805,-37.072 H 6.179 l -16.992,22.676 z m -37.071,-8.218 43.25,57.647 h 21.626 l -64.876,-86.501 -18.536,0.061 v 86.44 h 18.536 z" /></g></g></g></g></svg>